inDegrees=yes
name=ik_lifting_orientations
DataType=double
version=3
OpenSimVersion=4.5-2024-01-10-34fd6af
endheader
time	pelvis_tilt	pelvis_list	pelvis_rotation	pelvis_tx	pelvis_ty	pelvis_tz	hip_flexion_r	hip_adduction_r	hip_rotation_r	knee_angle_r	knee_angle_r_beta	ankle_angle_r	subtalar_angle_r	mtp_angle_r	hip_flexion_l	hip_adduction_l	hip_rotation_l	knee_angle_l	knee_angle_l_beta	ankle_angle_l	subtalar_angle_l	mtp_angle_l	lumbar_extension	lumbar_bending	lumbar_rotation	arm_flex_r	arm_add_r	arm_rot_r	elbow_flex_r	pro_sup_r	wrist_flex_r	wrist_dev_r	arm_flex_l	arm_add_l	arm_rot_l	elbow_flex_l	pro_sup_l	wrist_flex_l	wrist_dev_l
0.02	-0.02288502757592431	-0.01515628412672811	-179.5803356002214	0	0.9399999998679526	0	9.095902914824133	-4.127959090431589	0	17.7530466227274	0.3098491158266526	-2.378860794334161	0	0	9.095902914824133	-4.127959090431589	0	17.7530466227274	0.3098491158266526	-2.378860794334161	0	0	-0.03773930311862558	-0.01303060319536718	-0.003283314581507234	-0.2836448831440257	-0.07226789864163119	-0.003790000522371116	0.6189143744600593	66.97051733245749	0	0	0	-1.376941998548237	0	22.94417698618673	66.97051733245749	0	0
0.03	-0.1487116711389	-0.00654711508372432	-179.5771856715713	0	0.9399999998679526	0	9.103112208253913	-4.131206716745025	0	17.76318209317617	0.3100260131572223	-2.380720914426947	0	0	9.103112208253913	-4.131206716745025	0	17.76318209317617	0.3100260131572223	-2.380720914426947	0	0	-0.0964419041231051	0.02354153431986178	-0.03169112818666286	-0.04069668575247718	-0.01405001127400824	-0.1852978208182836	0.3427519437472308	66.95447412852573	0	0	0	-1.378045896361868	0	22.9602908550618	66.95447412852573	0	0
0.04	-0.2747065046897283	-0.004420095176906779	-179.5780299413057	0	0.9399999998679526	0	9.112253900648181	-4.135324654448382	0	17.77602829564444	0.3102502216866715	-2.383079280296042	0	0	9.112253900648181	-4.135324654448382	0	17.77602829564444	0.3102502216866715	-2.383079280296042	0	0	-0.3365033893437103	0.06653535406195309	-0.0640209989637615	0.3390248893273862	0.01228231516664266	-0.4092196909892029	0.2349042294410686	66.93413758013445	0	0	0	-1.379445400531309	0	22.98071687730211	66.93413758013445	0	0
0.05	-0.2704037555021671	-0.0033659716042907	-179.5869948751853	0	0.9399999998679526	0	9.128269579057376	-4.142532915876449	0	17.79852026179736	0.3106427805512871	-2.38720592199523	0	0	9.128269579057376	-4.142532915876449	0	17.79852026179736	0.3106427805512871	-2.38720592199523	0	0	-0.7362962811069356	0.1058477069907794	-0.09704689549131158	1.064821804451828	0.02635345766925926	-0.5754293223909644	0.158591910415946	66.89855324789011	0	0	0	-1.381899395924535	0	23.01645727910344	66.89855324789011	0	0
0.06	-0.2351852090721576	-0.002807959261022235	-179.5891370622471	0	0.9399999998679526	0	9.141353176416708	-4.148401117788173	0	17.81688731899052	0.3109633461732099	-2.390561616692241	0	0	9.141353176416708	-4.148401117788173	0	17.81688731899052	0.3109633461732099	-2.390561616692241	0	0	-1.181582642829669	0.1586490744851351	-0.1406685474849863	1.906536031652501	0.04169382801018413	-0.7270505703741509	0.1128203578730837	66.86959216004018	0	0	0	-1.38391441369557	0	23.04554437842535	66.86959216004018	0	0
0.07000000000000001	-0.4321590966459755	-0.05757161529998623	-179.6494633811396	0	0.9399999998679526	0	9.15586914711265	-4.154903869995181	0	17.83725149767439	0.3113187681407077	-2.394278463832283	0	0	9.15586914711265	-4.154903869995181	0	17.83725149767439	0.3113187681407077	-2.394278463832283	0	0	-2.02355623503589	0.1486819704628342	-0.118815819164668	2.903616192851671	0.02024605346439066	-0.8776741363995361	0.08713559473854658	66.83751329589035	0	0	0	-1.38615381236989	0	23.07776228084008	66.83751329589035	0	0
0.08	-0.5997371676351101	-0.07780549330746678	-179.6749423046679	0	0.9399999998679526	0	9.172615672025909	-4.162376215421028	0	17.860735887506	0.3117286480660912	-2.39854423105043	0	0	9.172615672025909	-4.162376215421028	0	17.860735887506	0.3117286480660912	-2.39854423105043	0	0	-2.953941353852778	0.1750836835188945	-0.1407167324443632	4.075505874369497	-0.01875859824686573	-0.9638694343716108	0.0687077529185966	66.80066102332601	0	0	0	-1.388753074723447	0	23.11477286782956	66.80066102332601	0	0
0.09	-0.7741361029037701	-0.1021100413897039	-179.6868746522471	0	0.9399999998679526	0	9.191113110961521	-4.170611978576364	0	17.88665754080945	0.3121810662637969	-2.403242484975376	0	0	9.191113110961521	-4.170611978576364	0	17.88665754080945	0.3121810662637969	-2.403242484975376	0	0	-3.762982108087844	0.2208713590143684	-0.1824823584929913	5.125368440528998	-0.1096305262926104	-1.012469754763193	0.05567628045950538	66.76006210454457	0	0	0	-1.391633943846326	0	23.15554519672745	66.76006210454457	0	0
0.1	-1.24970858076136	-0.09199286877751529	-179.6894000244656	0	0.9399999998679526	0	9.203505739524964	-4.176081795215572	0	17.90402920102379	0.3124842589310749	-2.406354776459759	0	0	9.203505739524964	-4.176081795215572	0	17.90402920102379	0.3124842589310749	-2.406354776459759	0	0	-5.098434558309848	0.3083877505294988	-0.2234832299286929	6.394534521932743	-0.2446741600833256	-1.108804488022898	0.04645007167253465	66.73309304359609	0	0	0	-1.393590032334088	0	23.18262744688035	66.73309304359609	0	0
0.11	-1.481582573000224	-0.1949675933577135	-179.780370437277	0	0.9399999998679526	0	9.223946332922694	-4.18522805917286	0	17.93260203645553	0.3129829489859892	-2.411577771451982	0	0	9.223946332922694	-4.18522805917286	0	17.93260203645553	0.3129829489859892	-2.411577771451982	0	0	-6.596306093234754	0.2779677659453851	-0.2220318901001475	8.114895763538181	-0.4516062291423664	-1.148259554601785	0.04043746165683883	66.68807269550908	0	0	0	-1.396744248124681	0	23.22784101034918	66.68807269550908	0	0
0.12	-1.558534848110575	-0.2404237202020538	-179.823541229701	0	0.9399999998679526	0	9.237341239545877	-4.191218602396074	0	17.95130972147034	0.3133094596849236	-2.414997526613587	0	0	9.237341239545877	-4.191218602396074	0	17.95130972147034	0.3133094596849236	-2.414997526613587	0	0	-8.301095798475897	0.2881759885823093	-0.2231446128476942	10.15464613823589	-0.7238425440376328	-1.173809002125092	0.03608447454943601	66.65860071246435	0	0	0	-1.398811525617378	0	23.25743910009782	66.65860071246435	0	0
0.13	-1.638453432780528	-0.2794112650481574	-179.8713598282308	0	0.9399999998679526	0	9.253254143506354	-4.198343203322151	0	17.97351216125964	0.3136969653612228	-2.419065433783966	0	0	9.253254143506354	-4.198343203322151	0	17.97351216125964	0.3136969653612228	-2.419065433783966	0	0	-10.22640327948736	0.3114530102842805	-0.2325004779676415	12.3988631904741	-0.9875810964639687	-1.161567129132011	0.03273691499906765	66.62357094063144	0	0	0	-1.40126233897747	0	23.29261879937076	66.62357094063144	0	0
0.14	-1.718146285057959	-0.3718377996419985	-179.9610787075948	0	0.9399999998679526	0	9.259964446954102	-4.201342275260029	0	17.98287169266071	0.3138603200006151	-2.420776909218213	0	0	9.259964446954102	-4.201342275260029	0	17.98287169266071	0.3138603200006151	-2.420776909218213	0	0	-10.17448479412805	0.2480078548490896	-0.1963258194032221	12.60614998401962	-1.199164919402296	-1.08129712354355	0.03022770118245019	66.6088284365952	0	0	0	-1.402298956738316	0	23.30742414393706	66.6088284365952	0	0
0.15	-2.130557284914251	-0.4713920213783888	-180.06915989727	0	0.9399999998679526	0	9.26732655992534	-4.204628754908476	0	17.99313793321289	0.3140394997000525	-2.422651659883878	0	0	9.26732655992534	-4.204628754908476	0	17.99313793321289	0.3140394997000525	-2.422651659883878	0	0	-10.13105774460463	0.2325891536529146	-0.1999140793945448	12.50974667460279	-1.459672235585379	-0.9668253248437576	0.02804080750608597	66.59267536325365	0	0	0	-1.403438268470294	0	23.3236458691836	66.59267536325365	0	0
0.16	-2.526118016084603	-0.5722485629521539	-180.1703418964596	0	0.9399999998679526	0	9.275156055910827	-4.208125895474511	0	18.00405027293685	0.3142299559573317	-2.424646750727313	0	0	9.275156055910827	-4.208125895474511	0	18.00405027293685	0.3142299559573317	-2.424646750727313	0	0	-10.160650138275	0.2120735528636902	-0.2080436555442551	12.38265501764642	-1.868727496182563	-0.9079619081171627	0.027074656223783	66.5754923152646	0	0	0	-1.404648524022735	0	23.34090195376701	66.5754923152646	0	0
0.17	-2.2014142736571	-0.6434314921566475	-180.2537963545047	0	0.9399999998679526	0	9.290623060211095	-4.215051275922186	0	18.02558424447929	0.3146057946617781	-2.428599844132245	0	0	9.290623060211095	-4.215051275922186	0	18.02558424447929	0.3146057946617781	-2.428599844132245	0	0	-9.482604319133998	0.2343475958566539	-0.2228585738295714	12.23174153697763	-2.221887277304438	-0.8308954394119004	0.02612806714017284	66.54148773007611	0	0	0	-1.407029297181486	0	23.37505147601975	66.54148773007611	0	0
0.18	-2.566942625402756	-0.7860002533737559	-180.4029756481482	0	0.9399999998679526	0	9.298576738319497	-4.218593592654106	0	18.03665988465868	0.3147991010496746	-2.430618647981244	0	0	9.298576738319497	-4.218593592654106	0	18.03665988465868	0.3147991010496746	-2.430618647981244	0	0	-9.378210193454311	0.1772851030802262	-0.2000081368958329	11.99372323366206	-2.543805432908032	-0.7020762363137222	0.02506216659481439	66.52409152017734	0	0	0	-1.408263809745594	0	23.39252105415132	66.52409152017734	0	0
